<svg xmlns="http://www.w3.org/2000/svg" width="800" height="800" viewBox="0 0 800 800" version="1.1"><path d="M 395.500 45.107 C 366.070 48.641, 333.477 59.158, 308.676 73.123 C 241.731 110.818, 197.778 177.698, 189.913 253.836 C 188.258 269.857, 189.231 299.341, 191.914 314.500 C 203.562 380.293, 248.642 480.227, 322.279 603.500 C 351.452 652.336, 418.477 755.801, 421.533 756.713 C 422.649 757.047, 445.697 722.740, 469.712 685 C 554.267 552.121, 612.544 440.643, 639.089 361 C 654.878 313.629, 658.354 278.821, 651.423 237.500 C 639.249 164.917, 591.172 100.679, 524.500 67.911 C 502.480 57.088, 481.101 50.231, 457.420 46.395 C 445.583 44.478, 407.359 43.683, 395.500 45.107 M 410.651 153.089 C 381.502 155.589, 353.532 169.113, 332.949 190.659 C 312.247 212.329, 301.120 238.600, 299.341 270 C 298.317 288.069, 302.492 309.229, 310.535 326.739 C 319.209 345.623, 337.006 366.233, 354.399 377.537 C 403.655 409.547, 467.655 402.719, 509.042 361.037 C 531.979 337.937, 543.988 308.304, 543.997 274.785 C 544.003 249.253, 537.609 228.120, 523.436 206.830 C 498.653 169.603, 455.859 149.212, 410.651 153.089" stroke="none" fill="#d63930" fill-rule="evenodd"/></svg>