<?xml version="1.0" standalone="no"?>
<!DOCTYPE svg PUBLIC "-//W3C//DTD SVG 20010904//EN"
 "http://www.w3.org/TR/2001/REC-SVG-20010904/DTD/svg10.dtd">
<svg version="1.0" xmlns="http://www.w3.org/2000/svg"
 width="960.000000pt" height="960.000000pt" viewBox="0 0 960.000000 960.000000"
 preserveAspectRatio="xMidYMid meet">

<g transform="translate(0.000000,960.000000) scale(0.100000,-0.100000)"
fill="#000000" stroke="none">
<path d="M4795 9379 c-91 -140 -1109 -1714 -1205 -1864 -53 -82 -222 -343
-375 -580 -153 -236 -322 -497 -375 -580 -53 -82 -292 -451 -530 -820 -238
-368 -552 -854 -698 -1080 -146 -225 -271 -420 -280 -432 l-14 -23 618 0 619
0 391 608 c216 334 674 1046 1019 1582 345 536 656 1018 689 1070 34 52 88
137 121 188 46 71 62 89 70 80 7 -7 70 -107 142 -223 72 -115 307 -493 523
-840 216 -346 438 -704 495 -795 56 -91 302 -484 545 -875 243 -390 454 -729
469 -752 l26 -43 619 0 618 0 -18 28 c-24 36 -200 315 -621 982 -192 305 -552
875 -798 1265 -247 391 -512 811 -590 935 -78 124 -238 378 -356 565 -119 187
-359 567 -534 845 -175 278 -360 570 -410 650 -50 80 -96 153 -102 164 -9 16
-16 10 -58 -55z"/>
<path d="M4735 6756 c-27 -13 -60 -34 -71 -47 -24 -28 -1089 -1745 -1116
-1801 -24 -50 -23 -108 7 -329 14 -101 32 -236 40 -299 21 -159 32 -194 77
-244 51 -59 106 -80 197 -74 87 5 138 36 196 123 42 63 241 367 571 873 108
166 200 302 203 302 3 0 123 -179 266 -398 470 -719 542 -827 566 -849 38 -35
93 -53 161 -53 105 0 187 56 221 151 22 60 91 584 92 689 0 83 -2 88 -41 155
-80 138 -1056 1711 -1081 1744 -58 76 -191 103 -288 57z m475 -808 c201 -326
441 -715 534 -865 l169 -274 -37 -282 c-21 -155 -40 -292 -44 -305 -6 -19 -37
23 -192 260 -101 156 -252 387 -335 513 -83 127 -220 337 -305 467 -85 131
-158 237 -162 235 -7 -2 -155 -227 -678 -1029 -224 -342 -307 -463 -312 -450
-10 25 -80 560 -76 586 3 21 1058 1736 1068 1735 3 0 169 -266 370 -591z"/>
<path d="M6020 3955 c-138 -25 -332 -105 -468 -191 l-52 -34 51 -102 c28 -57
53 -105 54 -106 2 -2 27 14 57 36 115 86 274 152 411 170 l67 9 0 -1254 0
-1253 120 0 120 0 0 1251 0 1252 53 -7 c68 -9 216 -59 275 -93 26 -14 75 -46
110 -71 35 -24 65 -42 67 -40 1 1 26 49 53 104 l51 102 -53 35 c-133 88 -325
165 -479 193 -102 18 -336 17 -437 -1z"/>
<path d="M2610 2576 l0 -1346 120 0 120 0 0 374 0 373 53 7 c133 18 315 80
443 151 188 105 329 275 396 475 32 94 32 97 33 295 0 213 -10 289 -59 433
-82 241 -236 407 -461 498 -131 53 -254 74 -462 81 l-183 6 0 -1347z m393
1053 c127 -32 229 -90 317 -178 88 -89 131 -158 173 -278 28 -80 31 -99 30
-208 0 -89 -6 -140 -21 -198 -58 -215 -210 -381 -425 -467 -72 -29 -205 -61
-219 -53 -5 2 -8 319 -8 704 l0 699 36 0 c20 0 72 -9 117 -21z"/>
<path d="M4090 2575 l0 -1345 120 0 120 0 0 1345 0 1345 -120 0 -120 0 0
-1345z"/>
<path d="M5147 3808 c-14 -261 -84 -529 -202 -773 -121 -251 -253 -401 -512
-580 -21 -15 -23 -24 -23 -114 0 -119 21 -246 60 -363 109 -324 339 -555 682
-682 89 -33 244 -76 276 -76 10 0 12 28 10 122 l-3 121 -70 14 c-166 34 -353
139 -473 267 -120 129 -197 316 -208 506 l-5 85 57 40 c143 101 305 311 424
550 101 205 156 372 194 595 16 91 42 378 35 384 -2 2 -56 6 -120 10 l-116 7
-6 -113z"/>
<path d="M1290 1010 c0 -7 1177 -10 3510 -10 2333 0 3510 3 3510 10 0 7 -1177
10 -3510 10 -2333 0 -3510 -3 -3510 -10z"/>
<path d="M1970 737 l0 -62 -64 0 c-70 0 -94 -14 -124 -70 -21 -40 -19 -138 3
-171 25 -39 81 -59 130 -46 22 6 52 8 68 5 l27 -5 0 206 c0 199 -1 206 -20
206 -18 0 -20 -7 -20 -63z m-16 -113 c23 -22 22 -160 -1 -186 -24 -26 -78 -24
-108 6 -67 67 -28 196 59 196 19 0 42 -7 50 -16z"/>
<path d="M1300 590 l0 -200 115 0 c108 0 115 1 115 20 0 19 -7 20 -90 20 l-90
0 0 80 0 80 65 0 c51 0 65 3 65 15 0 12 -14 15 -65 15 l-65 0 0 65 0 65 95 0
c88 0 95 1 95 20 0 19 -7 20 -120 20 l-120 0 0 -200z"/>
<path d="M4127 784 c-4 -4 -7 -16 -7 -26 0 -14 6 -19 23 -16 14 2 22 10 22 23
0 20 -25 32 -38 19z"/>
<path d="M5814 771 c-47 -29 -84 -111 -84 -185 0 -89 35 -160 92 -186 56 -25
101 -25 156 1 38 19 42 23 29 36 -13 13 -19 13 -47 -2 -22 -12 -46 -15 -72
-12 -72 10 -110 66 -110 162 0 101 50 169 125 170 23 0 52 -4 63 -8 17 -6 23
-3 27 12 6 24 -15 31 -93 31 -37 0 -65 -6 -86 -19z"/>
<path d="M3728 749 c-11 -6 -18 -22 -18 -39 0 -20 -5 -30 -15 -30 -8 0 -15 -7
-15 -15 0 -8 7 -15 15 -15 12 0 15 -18 15 -97 0 -107 10 -139 51 -162 32 -18
101 -8 93 14 -4 10 -14 13 -30 9 -16 -4 -30 1 -48 20 -24 23 -26 32 -26 121
l0 95 46 0 c59 0 56 24 -4 28 -40 3 -41 4 -44 42 -3 34 -5 37 -20 29z"/>
<path d="M7257 743 c-4 -3 -7 -22 -7 -41 0 -26 -3 -33 -15 -28 -9 3 -15 0 -15
-9 0 -8 6 -15 14 -15 11 0 15 -25 18 -111 3 -107 4 -112 31 -135 28 -24 53
-29 94 -18 13 4 20 11 16 20 -3 9 -13 12 -27 8 -14 -3 -31 2 -47 14 -22 19
-24 26 -24 119 l0 98 43 3 c28 2 42 8 42 18 0 10 -12 14 -45 14 -45 0 -45 0
-45 35 0 33 -16 46 -33 28z"/>
<path d="M2272 556 c2 -105 6 -127 22 -145 29 -32 79 -37 121 -12 43 25 45 25
45 6 0 -8 9 -15 20 -15 19 0 20 7 20 145 0 138 -1 145 -20 145 -19 0 -20 -7
-20 -109 0 -118 -6 -132 -57 -152 -35 -13 -41 -12 -68 16 -24 23 -25 31 -25
135 0 105 -1 110 -21 110 -20 0 -21 -4 -17 -124z"/>
<path d="M2811 663 c-64 -32 -88 -130 -52 -209 15 -32 28 -45 62 -58 65 -26
160 -8 146 28 -6 14 -10 14 -42 0 -88 -36 -162 45 -135 146 18 66 85 99 142
69 14 -8 23 -8 31 0 34 34 -94 54 -152 24z"/>
<path d="M3250 671 c-23 -6 -26 -12 -21 -41 0 -6 13 -4 31 5 16 8 38 15 48 15
30 0 74 -39 70 -64 -2 -17 -9 -20 -35 -18 -18 2 -52 -5 -76 -16 -35 -15 -47
-28 -56 -54 -23 -69 26 -126 96 -113 21 4 44 11 50 17 9 7 24 5 49 -7 43 -20
49 -17 29 21 -10 19 -15 57 -15 112 0 93 -16 136 -52 146 -29 7 -85 6 -118 -3z
m114 -137 c11 -4 16 -19 16 -45 0 -30 -5 -42 -24 -54 -30 -20 -85 -16 -99 6
-30 49 47 116 107 93z"/>
<path d="M4080 660 c0 -13 7 -20 20 -20 19 0 20 -7 20 -125 0 -118 1 -125 20
-125 19 0 20 7 20 145 l0 145 -40 0 c-33 0 -40 -3 -40 -20z"/>
<path d="M4481 667 c-84 -43 -95 -211 -17 -262 57 -38 147 -24 181 28 22 34
30 116 16 160 -18 53 -63 87 -114 87 -23 0 -53 -6 -66 -13z m92 -28 c32 -14
47 -49 47 -105 0 -85 -46 -130 -109 -108 -38 14 -52 50 -48 118 3 49 8 63 31
83 30 26 44 28 79 12z"/>
<path d="M4910 535 c0 -138 1 -145 20 -145 19 0 20 7 20 109 0 106 1 110 26
130 34 27 76 27 100 0 16 -17 20 -40 22 -130 3 -99 5 -109 23 -109 17 0 19 8
19 98 0 111 -12 167 -40 182 -29 15 -93 12 -119 -7 -22 -15 -25 -15 -36 0 -29
40 -35 18 -35 -128z"/>
<path d="M6311 663 c-67 -33 -92 -156 -44 -222 30 -41 81 -63 131 -57 59 8 87
23 72 41 -9 11 -16 10 -41 -2 -59 -29 -125 7 -143 80 l-6 27 109 0 c111 0 128
6 117 43 -3 6 -7 25 -10 40 -13 58 -113 85 -185 50z m125 -40 c13 -12 24 -31
24 -43 0 -18 -6 -20 -79 -20 -44 0 -83 4 -86 10 -10 17 15 51 48 65 43 18 64
15 93 -12z"/>
<path d="M6750 535 c0 -138 1 -145 20 -145 19 0 20 7 20 109 0 106 1 110 26
130 34 26 68 27 94 1 18 -18 20 -33 20 -130 0 -103 1 -110 20 -110 19 0 20 7
20 120 0 115 -1 122 -25 145 -31 32 -91 34 -128 5 -14 -11 -27 -20 -30 -20 -3
0 -7 9 -10 20 -3 11 -10 20 -16 20 -7 0 -11 -47 -11 -145z"/>
<path d="M7690 667 c-43 -22 -70 -73 -70 -136 0 -109 65 -164 169 -143 62 13
63 14 56 35 -6 13 -10 13 -45 0 -32 -13 -45 -14 -69 -3 -39 16 -59 39 -67 78
l-6 32 111 0 111 0 0 33 c0 41 -33 95 -66 107 -35 14 -94 12 -124 -3z m122
-45 c9 -9 18 -26 20 -37 3 -18 -3 -20 -79 -23 -67 -2 -83 0 -83 12 0 29 14 49
44 62 36 16 74 10 98 -14z"/>
<path d="M8130 535 c0 -138 1 -145 20 -145 19 0 20 7 20 104 0 99 1 104 27
130 20 20 35 27 55 24 24 -4 38 7 38 28 0 11 -68 2 -86 -11 -25 -19 -34 -19
-34 0 0 8 -9 15 -20 15 -19 0 -20 -7 -20 -145z"/>
</g>
</svg>
