<?xml version="1.0" standalone="no"?>
<!DOCTYPE svg PUBLIC "-//W3C//DTD SVG 20010904//EN"
 "http://www.w3.org/TR/2001/REC-SVG-20010904/DTD/svg10.dtd">
<svg version="1.0" xmlns="http://www.w3.org/2000/svg"
 width="512.000000pt" height="512.000000pt" viewBox="0 0 512.000000 512.000000"
 preserveAspectRatio="xMidYMid meet">

<g transform="translate(0.000000,512.000000) scale(0.100000,-0.100000)"
fill="#000000" stroke="none">
<path d="M2424 5110 c-242 -27 -462 -104 -635 -220 -86 -58 -223 -198 -283
-289 -98 -147 -166 -313 -200 -487 -37 -183 -37 -219 0 -809 18 -308 34 -581
34 -607 l0 -48 -305 0 -305 0 0 -1040 0 -1040 -80 0 -80 0 0 -40 0 -40 -275 0
-275 0 0 -245 0 -245 2540 0 2540 0 0 245 0 245 -260 0 -260 0 0 40 0 40 -55
0 -55 0 0 1040 0 1040 -281 0 -282 0 7 63 c3 34 10 125 15 202 42 605 11 1001
-103 1348 -153 465 -439 733 -882 827 -111 24 -395 35 -520 20z m637 -820 c98
-110 291 -278 442 -384 74 -52 232 -136 255 -136 37 0 -20 -234 -94 -384 -127
-258 -371 -473 -632 -557 l-72 -23 0 -78 0 -78 -315 0 -315 0 0 85 c0 49 -4
85 -10 85 -5 0 -50 17 -99 38 -229 99 -437 293 -545 508 -85 170 -115 286
-123 481 l-6 141 54 6 c30 3 104 10 164 16 406 40 758 118 955 212 99 48 196
136 207 189 l6 33 26 -34 c14 -19 60 -73 102 -120z m-342 -2496 c101 -30 181
-135 181 -239 0 -106 -80 -210 -186 -241 -163 -47 -324 72 -324 240 0 115 63
201 179 242 48 18 87 17 150 -2z"/>
</g>
</svg>
