<?xml version="1.0" standalone="no"?>
<!DOCTYPE svg PUBLIC "-//W3C//DTD SVG 20010904//EN"
 "http://www.w3.org/TR/2001/REC-SVG-20010904/DTD/svg10.dtd">
<svg version="1.0" xmlns="http://www.w3.org/2000/svg"
 width="512.000000pt" height="512.000000pt" viewBox="0 0 512.000000 512.000000"
 preserveAspectRatio="xMidYMid meet">

<g transform="translate(0.000000,512.000000) scale(0.100000,-0.100000)"
fill="#000000" stroke="none">
<path d="M724 5050 c-105 -37 -187 -110 -230 -205 -105 -229 16 -486 261 -551
196 -53 413 71 472 268 26 89 16 214 -24 293 -44 87 -137 165 -237 198 -65 22
-176 21 -242 -3z"/>
<path d="M1726 5021 c-15 -10 -37 -32 -47 -47 -18 -27 -19 -56 -19 -507 l0
-477 88 89 c66 68 97 92 130 102 l42 12 0 294 0 293 960 0 960 0 0 -860 0
-860 -957 2 -958 3 -3 139 -3 139 -53 -55 c-57 -60 -109 -92 -170 -103 l-37
-7 3 -148 c3 -142 4 -150 28 -175 51 -55 50 -55 440 -55 281 0 360 -3 360 -12
0 -7 -50 -238 -110 -512 -61 -274 -110 -505 -110 -512 0 -8 19 -2 52 16 50 28
131 53 208 65 l35 5 31 142 c17 79 64 293 105 476 l73 332 112 0 112 0 10 -42
c6 -24 90 -405 187 -848 141 -639 182 -811 200 -835 45 -60 135 -69 194 -19
43 36 53 82 36 163 -8 36 -88 405 -179 818 -91 414 -166 755 -166 758 0 3 160
5 356 5 390 0 402 2 444 60 20 28 20 48 20 1063 0 1034 0 1034 -21 1061 -47
59 23 56 -1201 56 -1083 0 -1124 -1 -1152 -19z"/>
<path d="M2235 4568 c-31 -17 -45 -39 -44 -72 0 -19 60 -152 152 -336 161
-324 167 -332 228 -317 14 4 85 52 159 107 74 55 137 99 141 98 4 -2 54 -61
111 -133 l103 -130 224 -3 c219 -2 225 -2 248 20 33 31 32 86 -3 119 -25 23
-31 24 -206 27 l-180 4 -86 111 c-119 153 -152 186 -188 193 -27 5 -46 -6
-171 -99 l-141 -105 -118 245 c-70 144 -129 253 -143 264 -27 21 -56 24 -86 7z"/>
<path d="M663 4181 c-60 -20 -111 -57 -150 -107 -16 -20 -130 -127 -254 -239
-141 -127 -232 -216 -242 -238 -23 -48 -21 -96 6 -145 34 -63 401 -467 441
-486 47 -22 94 -20 146 7 61 31 83 65 87 134 5 75 -4 91 -142 244 -60 68 -118
132 -127 144 -16 21 -14 23 90 116 213 190 205 187 105 45 -35 -49 -63 -94
-63 -99 0 -4 50 -63 110 -130 137 -152 165 -203 165 -307 0 -93 -34 -170 -101
-229 -63 -55 -126 -75 -225 -69 l-79 5 0 -151 c0 -83 3 -349 7 -592 l6 -441
39 39 c82 82 197 141 306 156 l47 7 3 288 2 287 70 0 70 0 0 -290 0 -289 43
-12 c61 -16 141 -56 192 -95 l45 -34 0 1113 c0 1233 4 1155 -66 1250 -38 52
-116 107 -180 125 -66 19 -289 15 -351 -7z"/>
<path d="M1937 4055 c-50 -17 -59 -26 -195 -185 -63 -74 -118 -138 -122 -143
-5 -6 -90 62 -202 161 -17 14 -18 4 -18 -209 l0 -225 63 -53 c114 -98 197
-114 269 -53 17 15 116 125 218 244 195 227 219 265 205 331 -22 103 -125 166
-218 132z"/>
<path d="M2311 3549 c-35 -14 -50 -39 -51 -81 0 -28 6 -41 26 -57 26 -21 35
-21 574 -21 l547 0 20 23 c29 32 34 52 21 88 -20 59 -23 59 -595 58 -307 0
-528 -4 -542 -10z"/>
<path d="M740 1697 c-180 -61 -295 -221 -295 -412 0 -146 60 -264 178 -352
286 -210 688 -4 688 352 0 298 -290 508 -571 412z"/>
<path d="M2458 1701 c-255 -82 -380 -374 -261 -608 177 -351 679 -312 807 62
21 64 21 196 0 260 -79 230 -322 357 -546 286z"/>
<path d="M4159 1697 c-192 -65 -309 -239 -297 -436 24 -372 463 -545 733 -290
88 83 135 192 135 314 0 297 -292 507 -571 412z"/>
<path d="M436 746 c-70 -26 -88 -54 -235 -376 -78 -170 -141 -311 -141 -314 0
-4 353 -6 784 -6 l783 0 17 44 17 45 -120 263 c-67 145 -129 274 -139 288 -10
14 -36 34 -58 45 -37 19 -61 20 -454 22 -334 2 -423 0 -454 -11z"/>
<path d="M2146 745 c-22 -8 -52 -27 -68 -42 -17 -18 -80 -141 -162 -321 -74
-160 -137 -301 -141 -312 -6 -20 -4 -20 814 -20 l820 0 -18 43 c-11 23 -75
166 -145 317 -133 293 -149 316 -225 339 -60 17 -824 15 -875 -4z"/>
<path d="M3857 746 c-78 -28 -79 -29 -224 -345 -121 -266 -121 -266 -107 -301
8 -19 18 -38 23 -43 4 -4 358 -6 787 -5 l781 3 -142 310 c-150 329 -171 362
-243 383 -59 18 -824 16 -875 -2z"/>
</g>
</svg>
