<?xml version="1.0" standalone="no"?>
<!DOCTYPE svg PUBLIC "-//W3C//DTD SVG 20010904//EN"
 "http://www.w3.org/TR/2001/REC-SVG-20010904/DTD/svg10.dtd">
<svg version="1.0" xmlns="http://www.w3.org/2000/svg"
 width="512.000000pt" height="512.000000pt" viewBox="0 0 512.000000 512.000000"
 preserveAspectRatio="xMidYMid meet">

<g transform="translate(0.000000,512.000000) scale(0.100000,-0.100000)"
fill="#000000" stroke="none">
<path d="M215 4399 c-50 -12 -122 -60 -158 -107 -60 -78 -57 14 -55 -1752 l3
-1615 21 -45 c27 -56 83 -113 143 -142 l46 -23 2345 0 2345 0 46 23 c60 29
116 86 143 142 l21 45 0 1635 0 1635 -21 45 c-27 56 -83 113 -143 142 l-46 23
-2325 2 c-1407 0 -2341 -3 -2365 -8z m4670 -224 c25 -24 25 -27 25 -200 l0
-175 -2350 0 -2350 0 0 175 c0 173 0 176 25 200 l24 25 2301 0 2301 0 24 -25z
m25 -1895 l0 -1311 -25 -24 -24 -25 -2301 0 -2301 0 -24 25 -25 24 0 1311 0
1310 2350 0 2350 0 0 -1310z"/>
<path d="M1835 2931 c-16 -10 -139 -129 -272 -263 l-243 -245 0 -48 0 -48 233
-235 c249 -252 296 -292 336 -292 64 0 115 64 103 130 -3 16 -82 103 -213 235
l-208 210 208 210 c132 133 210 219 213 235 12 65 -38 130 -99 130 -15 0 -41
-9 -58 -19z"/>
<path d="M2704 2922 c-18 -16 -131 -229 -284 -533 l-254 -505 12 -41 c15 -50
48 -73 103 -73 32 0 47 6 66 28 42 45 523 1012 523 1050 0 44 -14 68 -50 87
-45 23 -84 19 -116 -13z"/>
<path d="M3084 2916 c-36 -36 -43 -70 -23 -109 6 -12 103 -114 215 -227 l204
-205 -201 -200 c-110 -110 -207 -213 -216 -229 -21 -40 -10 -89 29 -121 27
-23 39 -26 72 -22 36 5 62 28 300 266 l261 261 0 45 0 45 -265 265 c-255 254
-267 265 -304 265 -30 0 -45 -7 -72 -34z"/>
</g>
</svg>
