<?xml version="1.0" standalone="no"?>
<!DOCTYPE svg PUBLIC "-//W3C//DTD SVG 20010904//EN"
 "http://www.w3.org/TR/2001/REC-SVG-20010904/DTD/svg10.dtd">
<svg version="1.0" xmlns="http://www.w3.org/2000/svg"
 width="128.000000pt" height="128.000000pt" viewBox="0 0 128.000000 128.000000"
 preserveAspectRatio="xMidYMid meet">

<g transform="translate(0.000000,128.000000) scale(0.100000,-0.100000)"
fill="#000000" stroke="none">
<path d="M91 1226 c-50 -28 -50 -33 -51 -463 0 -291 3 -409 12 -428 22 -49 51
-55 248 -55 l180 0 0 -40 0 -40 -60 0 c-34 0 -74 -7 -89 -15 -34 -17 -54 -60
-49 -106 l3 -34 355 0 355 0 3 34 c5 46 -15 89 -49 106 -15 8 -55 15 -89 15
l-60 0 0 40 0 40 180 0 c197 0 226 6 248 55 9 19 12 137 12 426 0 434 -1 443
-55 467 -40 18 -1061 16 -1094 -2z m1089 -46 c19 -19 20 -33 20 -420 0 -387
-1 -401 -20 -420 -19 -19 -33 -20 -540 -20 -507 0 -521 1 -540 20 -19 19 -20
33 -20 420 0 387 1 401 20 420 19 19 33 20 540 20 507 0 521 -1 540 -20z
m-420 -940 l0 -40 -120 0 -120 0 0 40 0 40 120 0 120 0 0 -40z m180 -100 c11
-11 20 -29 20 -40 0 -20 -7 -20 -320 -20 -313 0 -320 0 -320 20 0 11 9 29 20
40 19 19 33 20 300 20 267 0 281 -1 300 -20z"/>
<path d="M125 1148 c-3 -7 -4 -159 -3 -338 l3 -325 515 0 515 0 0 335 0 335
-513 3 c-406 2 -514 0 -517 -10z m995 -328 l0 -300 -480 0 -480 0 0 300 0 300
480 0 480 0 0 -300z"/>
<path d="M205 1068 c-3 -8 -4 -79 -3 -158 l3 -145 235 0 c202 0 235 2 235 15
0 13 -32 15 -217 18 l-217 2 -3 137 c-2 98 -7 138 -15 141 -7 2 -15 -3 -18
-10z"/>
<path d="M599 1030 c-25 -41 -36 -50 -60 -50 -23 0 -32 -7 -49 -40 -13 -25
-27 -40 -39 -40 -11 0 -34 18 -51 40 -17 22 -36 40 -41 40 -14 0 -102 -138
-94 -149 11 -20 24 -12 56 37 18 26 34 49 36 52 2 2 15 -10 29 -28 21 -26 32
-32 65 -32 35 0 40 4 59 39 16 32 26 40 52 43 27 3 37 12 66 60 31 53 35 78
11 78 -5 0 -23 -22 -40 -50z"/>
<path d="M792 1060 c-18 -11 -41 -34 -52 -52 -71 -117 71 -259 188 -188 18 11
41 34 52 52 71 116 -72 259 -188 188z m18 -144 c-26 -26 -32 -29 -40 -16 -23
37 -2 103 41 126 24 12 24 12 27 -33 3 -41 -1 -50 -28 -77z m136 72 l15 -28
-41 0 -40 0 0 40 c0 39 0 39 26 28 14 -7 32 -25 40 -40z m0 -96 c-23 -44 -89
-66 -126 -42 -12 8 -10 14 15 40 24 25 36 30 77 30 l49 0 -15 -28z"/>
<path d="M965 787 c-3 -7 -4 -60 -3 -118 l3 -104 55 0 55 0 0 115 0 115 -53 3
c-37 2 -54 -1 -57 -11z m75 -107 c0 -73 -2 -80 -20 -80 -18 0 -20 7 -20 80 0
73 2 80 20 80 18 0 20 -7 20 -80z"/>
<path d="M245 710 c-4 -7 -3 -16 3 -22 14 -14 47 -6 47 12 0 18 -40 26 -50 10z"/>
<path d="M325 709 c-15 -23 15 -30 121 -27 89 2 109 6 109 18 0 12 -20 16
-112 18 -74 2 -114 -1 -118 -9z"/>
<path d="M824 707 c-3 -8 -4 -43 -2 -78 l3 -64 55 0 55 0 0 75 0 75 -53 3
c-38 2 -54 -1 -58 -11z m76 -67 c0 -33 -3 -40 -20 -40 -17 0 -20 7 -20 40 0
33 3 40 20 40 17 0 20 -7 20 -40z"/>
<path d="M684 667 c-3 -8 -4 -34 -2 -58 l3 -44 55 0 55 0 0 55 0 55 -53 3
c-38 2 -54 -1 -58 -11z m76 -47 c0 -13 -7 -20 -20 -20 -13 0 -20 7 -20 20 0
13 7 20 20 20 13 0 20 -7 20 -20z"/>
<path d="M245 650 c-4 -7 -3 -16 3 -22 14 -14 47 -6 47 12 0 18 -40 26 -50 10z"/>
<path d="M325 649 c-15 -23 15 -30 121 -27 89 2 109 6 109 18 0 12 -20 16
-112 18 -74 2 -114 -1 -118 -9z"/>
<path d="M245 590 c-4 -7 -3 -16 3 -22 14 -14 47 -6 47 12 0 18 -40 26 -50 10z"/>
<path d="M325 589 c-15 -23 15 -30 121 -27 89 2 109 6 109 18 0 12 -20 16
-112 18 -74 2 -114 -1 -118 -9z"/>
<path d="M600 440 c-11 -11 -20 -29 -20 -40 0 -11 9 -29 20 -40 11 -11 29 -20
40 -20 11 0 29 9 40 20 11 11 20 29 20 40 0 11 -9 29 -20 40 -11 11 -29 20
-40 20 -11 0 -29 -9 -40 -20z m56 -31 c10 -17 -13 -36 -27 -22 -12 12 -4 33
11 33 5 0 12 -5 16 -11z"/>
</g>
</svg>
