<?xml version="1.0" standalone="no"?>
<!DOCTYPE svg PUBLIC "-//W3C//DTD SVG 20010904//EN"
 "http://www.w3.org/TR/2001/REC-SVG-20010904/DTD/svg10.dtd">
<svg version="1.0" xmlns="http://www.w3.org/2000/svg"
 width="512.000000pt" height="512.000000pt" viewBox="0 0 512.000000 512.000000"
 preserveAspectRatio="xMidYMid meet">

<g transform="translate(0.000000,512.000000) scale(0.100000,-0.100000)"
fill="#000000" stroke="none">
<path d="M2270 4695 c-288 -40 -585 -145 -820 -290 -573 -352 -942 -919 -1025
-1575 -23 -177 -17 -473 13 -640 80 -443 283 -832 602 -1150 413 -414 936
-630 1520 -630 346 0 635 67 945 220 77 38 181 96 232 128 l92 60 251 -169
c151 -101 262 -169 276 -169 28 0 64 32 64 57 0 10 -23 189 -51 398 l-51 380
57 90 c152 240 257 508 308 790 18 102 22 156 22 365 0 208 -4 263 -22 365
-79 432 -269 809 -568 1123 -315 331 -714 545 -1180 633 -147 28 -509 35 -665
14z m353 -1027 c10 -5 27 -24 37 -41 18 -28 20 -51 20 -194 l0 -163 463 0
c254 0 480 -5 501 -10 22 -5 51 -20 65 -35 22 -21 26 -35 26 -81 0 -50 -3 -58
-33 -85 -32 -29 -33 -29 -165 -29 l-132 0 -64 -127 c-148 -301 -342 -584 -549
-804 l-73 -77 33 -25 c174 -131 434 -255 643 -307 115 -29 138 -41 160 -86 22
-47 13 -99 -26 -134 -39 -37 -67 -41 -165 -19 -230 50 -483 165 -717 325 -59
41 -110 74 -112 74 -3 0 -47 -31 -97 -68 -217 -160 -437 -267 -670 -326 -102
-26 -138 -24 -177 13 -40 38 -49 89 -24 138 22 43 36 49 225 108 167 51 391
169 532 279 18 15 13 22 -105 143 -68 71 -162 176 -208 233 -148 184 -164 223
-118 291 46 69 142 70 194 2 152 -197 313 -379 399 -449 l45 -37 36 34 c115
110 331 397 448 594 47 79 115 210 115 220 0 3 -378 5 -840 5 l-840 0 -32 29
c-30 27 -33 35 -33 85 0 46 4 60 26 81 14 15 43 30 65 35 21 5 247 10 502 10
l462 0 0 164 c0 153 1 165 23 197 35 52 101 67 160 37z"/>
</g>
</svg>
